<svg xmlns="http://www.w3.org/2000/svg" width="28" height="18" viewBox="0 0 28 18">
  <path fill="#FFF" fill-rule="evenodd" d="M25.6120859,16.0065 C25.4028637,16.0065 25.2286414,15.8452826 25.2130859,15.6355435 C25.2130859,15.4140652 25.3919748,15.2340652 25.6120859,15.2340652 C25.8158637,15.2332826 25.9815303,15.398413 25.9823081,15.6034565 C25.9823081,15.614413 25.9815303,15.624587 25.9807525,15.6355435 C25.9807525,15.840587 25.8158637,16.0065 25.6120859,16.0065 L25.6120859,16.0065 Z M24.7666414,6.73571739 L24.7526414,13.6891957 C23.683197,14.1235435 23.1659748,15.3483261 23.5984192,16.424413 C23.928197,17.244587 24.733197,17.7697174 25.6120859,17.7368478 C26.7818637,17.6992826 27.6996414,16.7139783 27.6623081,15.5377174 C27.6374192,14.7465 27.1793081,14.0351087 26.4715303,13.6891957 L26.4715303,6.76702174 C26.5648637,6.61597826 26.6278637,6.4485 26.6566414,6.27241304 C26.6636414,5.91476087 26.4583081,5.58684783 26.1339748,5.43893478 L14.6796414,0.277630435 C13.8163081,-0.0925434783 12.840197,-0.0925434783 11.9768637,0.277630435 L0.492196987,5.43893478 C0.17953032,5.59545652 -0.0125807908,5.92180435 0.000641431438,6.27241304 C0.000641431438,6.63241304 0.239419209,6.94858696 0.583974765,7.04484783 L4.79097476,8.49736957 L4.79097476,13.9975435 C4.78553032,14.282413 4.92397476,14.5508478 5.15964143,14.7081522 C5.39608588,14.8654565 5.69241921,14.8998913 5.95764143,14.8012826 C10.7098637,13.0091087 15.9466414,13.0091087 20.6988637,14.8012826 L21.0060859,14.8631087 C21.1803081,14.8545 21.3490859,14.8012826 21.4968637,14.7081522 C21.7239748,14.5430217 21.8608637,14.2800652 21.8655303,13.9975435 L21.8655303,8.49736957 C21.8655303,7.68502174 21.9930859,7.33363043 21.0675303,6.92197826 C16.1939748,4.75415217 10.5698637,5.09928261 5.55864143,6.92197826 L3.19419699,6.11823913 L12.6527525,1.85380435 C13.0735303,1.6698913 13.5518637,1.6698913 13.9734192,1.85380435 L24.7666414,6.73571739 Z M20.1458637,12.7931087 C15.7109748,11.3726739 10.9463081,11.3726739 6.51064143,12.7931087 L6.51064143,8.43554348 C10.9260859,6.89145652 15.7304192,6.89145652 20.1458637,8.43554348 L20.1458637,12.7931087 Z"/>
</svg>
