<svg xmlns="http://www.w3.org/2000/svg" xmlns:xlink="http://www.w3.org/1999/xlink" width="1440" height="119" viewBox="0 0 1440 119">
  <defs>
    <rect id="frise-icons-a" width="1440" height="153" x="0" y="0"/>
  </defs>
  <g fill="none" fill-rule="evenodd" transform="translate(0 -34)">
    <mask id="frise-icons-b" fill="#fff">
      <use xlink:href="#frise-icons-a"/>
    </mask>
    <path fill="#D91C66" d="M340.456897,51.4188545 C363.062954,74.0359455 363.062954,110.704855 340.456897,133.321945 C317.865737,155.939036 281.219345,155.939036 258.620737,133.321945 C236.029577,110.704855 236.029577,74.0359455 258.620737,51.4188545 C281.219345,28.8017636 317.865737,28.8017636 340.456897,51.4188545" mask="url(#frise-icons-b)"/>
    <path fill="#7A3070" d="M357.452034,93.5314182 C357.452034,125.511418 331.538863,151.445782 299.584997,151.445782 C267.623683,151.445782 241.717961,125.511418 241.717961,93.5314182" mask="url(#frise-icons-b)"/>
    <path fill="#00497B" d="M416.904845,35.4933091 C448.851263,35.4933091 474.764433,61.4276727 474.764433,93.4076727 C474.764433,125.387673 448.851263,151.322036 416.904845,151.322036 C384.943531,151.322036 359.037809,125.387673 359.037809,93.4076727 C359.037809,61.4276727 384.943531,35.4933091 416.904845,35.4933091" mask="url(#frise-icons-b)"/>
    <path fill="#00B8CC" d="M457.965936,52.5426 C480.557095,75.1596909 480.557095,111.836055 457.965936,134.453145 C435.367327,157.070236 398.713487,157.070236 376.122327,134.445691" mask="url(#frise-icons-b)"/>
    <path fill="#7A2F6F" d="M600.003477,151.632545 C664.477291,151.632545 716.735642,99.3314545 716.735642,34.8123636 L483.27876,34.8123636 C483.27876,99.3314545 535.529662,151.632545 600.003477,151.632545" mask="url(#frise-icons-b)"/>
    <path fill="#D91C66" d="M655.576366,96.4226909 C689.571108,96.4226909 717.130387,68.8334182 717.130387,34.8108727 L594,34.8108727 C594,68.8334182 621.574175,96.4226909 655.576366,96.4226909" mask="url(#frise-icons-b)"/>
    <path fill="#00497B" d="M117.173858 36.6893636C52.5659716 36.6893636.188445876 89.0202727.00223453608 153.636273L45.199451 153.636273C45.2888325 134.515364 52.752183 116.549909 66.2636778 103.027364 79.8645541 89.4228182 97.941951 81.931 117.173858 81.931 136.398317 81.931 154.475714 89.4228182 168.069142 103.027364 181.588085 116.549909 189.043987 134.515364 189.133369 153.636273L234.338034 153.636273C234.151822 89.0202727 181.759399 36.6893636 117.173858 36.6893636M1322.38281 93.8456545C1322.38281 126.272927 1296.11956 152.557655 1263.71879 152.557655 1231.32547 152.557655 1205.05477 126.272927 1205.05477 93.8456545 1205.05477 61.4258364 1231.32547 35.1411091 1263.71879 35.1411091 1296.11956 35.1411091 1322.38281 61.4258364 1322.38281 93.8456545" mask="url(#frise-icons-b)"/>
    <path fill="#D91C66" d="M1381.56301,53.1803636 C1403.96796,53.1803636 1422.20177,71.4216364 1422.20177,93.8449091 C1422.20177,116.275636 1403.96796,134.516909 1381.56301,134.516909 C1359.15806,134.516909 1340.9317,116.275636 1340.9317,93.8449091 C1340.9317,71.4216364 1359.15806,53.1803636 1381.56301,53.1803636 M1381.56301,35.1403636 C1349.16969,35.1403636 1322.90644,61.4250909 1322.90644,93.8449091 C1322.90644,126.272182 1349.16969,152.556909 1381.56301,152.556909 C1413.95634,152.556909 1440.21958,126.272182 1440.21958,93.8449091 C1440.21958,61.4250909 1413.95634,35.1403636 1381.56301,35.1403636" mask="url(#frise-icons-b)"/>
    <path fill="#00B8CC" d="M946.054162 58.2904545C939.544214 58.2904545 934.255812 52.9977273 934.255812 46.475 934.255812 39.9448182 939.544214 34.6595455 946.054162 34.6595455 952.571559 34.6595455 957.874858 39.9448182 957.874858 46.475 957.874858 52.9977273 952.571559 58.2904545 946.054162 58.2904545M946.054162 105.034182C939.544214 105.034182 934.255812 99.7414545 934.255812 93.2187273 934.255812 86.696 939.544214 81.4032727 946.054162 81.4032727 952.571559 81.4032727 957.874858 86.696 957.874858 93.2187273 957.874858 99.7414545 952.571559 105.034182 946.054162 105.034182M946.054162 151.781636C939.544214 151.781636 934.255812 146.488909 934.255812 139.966182 934.255812 133.436 939.544214 128.150727 946.054162 128.150727 952.571559 128.150727 957.874858 133.436 957.874858 139.966182 957.874858 146.488909 952.571559 151.781636 946.054162 151.781636M922.447034 81.6626909C915.937085 81.6626909 910.633786 76.3699636 910.633786 69.8472364 910.633786 63.3245091 915.937085 58.0243273 922.447034 58.0243273 928.96443 58.0243273 934.252832 63.3245091 934.252832 69.8472364 934.252832 76.3699636 928.96443 81.6626909 922.447034 81.6626909M922.447034 128.410145C915.937085 128.410145 910.633786 123.117418 910.633786 116.594691 910.633786 110.071964 915.937085 104.771782 922.447034 104.771782 928.96443 104.771782 934.252832 110.071964 934.252832 116.594691 934.252832 123.117418 928.96443 128.410145 922.447034 128.410145M899.228714 58.2904545C892.711317 58.2904545 887.422915 52.9977273 887.422915 46.475 887.422915 39.9448182 892.711317 34.6595455 899.228714 34.6595455 905.746111 34.6595455 911.034513 39.9448182 911.034513 46.475 911.034513 52.9977273 905.746111 58.2904545 899.228714 58.2904545M899.093897 105.034182C892.5765 105.034182 887.288098 99.7414545 887.288098 93.2187273 887.288098 86.696 892.5765 81.4032727 899.093897 81.4032727 905.611294 81.4032727 910.899696 86.696 910.899696 93.2187273 910.899696 99.7414545 905.611294 105.034182 899.093897 105.034182M899.093897 151.781636C892.5765 151.781636 887.288098 146.488909 887.288098 139.966182 887.288098 133.436 892.5765 128.150727 899.093897 128.150727 905.611294 128.150727 910.899696 133.436 910.899696 139.966182 910.899696 146.488909 905.611294 151.781636 899.093897 151.781636M875.468892 81.6626909C868.951495 81.6626909 863.670541 76.3699636 863.670541 69.8472364 863.670541 63.3245091 868.951495 58.0243273 875.468892 58.0243273 882.001186 58.0243273 887.282139 63.3245091 887.282139 69.8472364 887.282139 76.3699636 882.001186 81.6626909 875.468892 81.6626909M875.468892 128.410145C868.951495 128.410145 863.670541 123.117418 863.670541 116.594691 863.670541 110.071964 868.951495 104.771782 875.468892 104.771782 882.001186 104.771782 887.282139 110.071964 887.282139 116.594691 887.282139 123.117418 882.001186 128.410145 875.468892 128.410145M852.52691 58.2904545C845.987168 58.2904545 840.706214 52.9977273 840.706214 46.475 840.706214 39.9448182 845.987168 34.6595455 852.52691 34.6595455 859.044307 34.6595455 864.32526 39.9448182 864.32526 46.475 864.32526 52.9977273 859.044307 58.2904545 852.52691 58.2904545M852.392093 105.034182C845.852351 105.034182 840.571397 99.7414545 840.571397 93.2187273 840.571397 86.696 845.852351 81.4032727 852.392093 81.4032727 858.90949 81.4032727 864.190443 86.696 864.190443 93.2187273 864.190443 99.7414545 858.90949 105.034182 852.392093 105.034182M852.392093 151.781636C845.852351 151.781636 840.571397 146.488909 840.571397 139.966182 840.571397 133.436 845.852351 128.150727 852.392093 128.150727 858.90949 128.150727 864.190443 133.436 864.190443 139.966182 864.190443 146.488909 858.90949 151.781636 852.392093 151.781636" mask="url(#frise-icons-b)"/>
    <path fill="#7A2F6F" d="M838.612036,34.4933091 C839.125979,34.4933091 839.617577,34.5604 840.131521,34.5678545 L840.131521,88.5834909 C839.617577,88.5760364 839.125979,88.5089455 838.612036,88.5089455 C804.401289,88.5089455 776.551521,116.433673 776.551521,150.746945 C776.551521,185.067673 804.401289,212.9924 838.612036,212.9924 C839.125979,212.9924 839.617577,212.932764 840.131521,212.917855 L840.131521,266.926036 C839.617577,266.933491 839.125979,267.000582 838.612036,267.000582 C774.600026,267.000582 722.706649,214.9604 722.706649,150.746945 C722.706649,86.5409455 774.600026,34.4933091 838.612036,34.4933091" mask="url(#frise-icons-b)"/>
    <path fill="#D91C66" d="M838.612036,71.4305818 C839.125979,71.4305818 839.617577,71.4976727 840.131521,71.5051273 L840.131521,107.525491 C839.625026,107.503127 839.125979,107.450945 838.612036,107.450945 C814.806778,107.450945 795.425902,126.870036 795.425902,150.746945 C795.425902,174.631309 814.806778,194.057855 838.612036,194.057855 C839.125979,194.057855 839.625026,193.998218 840.131521,193.983309 L840.131521,229.996218 C839.617577,229.996218 839.125979,230.070764 838.612036,230.070764 C795.008789,230.070764 759.531804,194.482764 759.531804,150.746945 C759.531804,107.011127 795.008789,71.4305818 838.612036,71.4305818" mask="url(#frise-icons-b)"/>
    <path fill="#00497B" d="M1145.31777,153 L1145.31777,153 C1145.31777,118.20918 1117.12813,90 1082.36142,90 C1047.57965,90 1019.39754,118.20918 1019.39754,153 L1145.31777,153 Z" mask="url(#frise-icons-b)"/>
    <path fill="#D91C66" d="M1105.08374,153 L1105.08374,153 C1105.08374,139.744832 1094.90924,129 1082.36467,129 C1069.81308,129 1059.63157,139.744832 1059.63157,153 L1105.08374,153 Z" mask="url(#frise-icons-b)"/>
    <path fill="#00B8CC" d="M1019.5371,153 C1019.5371,118.462277 1047.71435,90.3634095 1082.36517,90.3634095 C1117.00096,90.3634095 1145.19323,118.462277 1145.19323,153 L1199.71531,153 C1199.71531,88.3868305 1147.17585,36 1082.36517,36 C1017.54697,36 965,88.3868305 965,153 L1019.5371,153 Z" mask="url(#frise-icons-b)"/>
  </g>
</svg>
