<svg xmlns="http://www.w3.org/2000/svg" xmlns:xlink="http://www.w3.org/1999/xlink" width="19" height="27" viewBox="0 0 19 27">
  <defs>
    <polygon id="icon-immigrer-a" points="0 26.714 18.81 26.714 18.81 0 0 0"/>
  </defs>
  <g fill="none" fill-rule="evenodd">
    <path fill="#FFF" d="M7.49791154,9.70245 C7.22241154,10.4937 7.06675769,11.47845 7.03606538,12.48345 L5.82006538,12.48345 C5.93114231,11.31195 6.57495,10.3017 7.49791154,9.70245 M9.06029615,9.14445 C9.18160385,9.13245 9.30510385,9.1257 9.42933462,9.1257 C9.55356538,9.1257 9.67633462,9.13245 9.79764231,9.14445 C10.0775269,9.2982 10.6672577,10.4382 10.7315654,12.48345 L8.12710385,12.48345 C8.19141154,10.4382 8.78114231,9.2982 9.06029615,9.14445 M11.8043346,13.60245 L12.9816038,13.60245 C12.7799115,14.6082 12.1792192,15.4632 11.3607577,15.99495 C11.60045,15.30645 11.7495269,14.47095 11.8043346,13.60245 M13.0386038,12.48345 L11.8218731,12.48345 C11.7919115,11.47845 11.6362577,10.49445 11.3607577,9.70245 C12.2829885,10.3017 12.9267962,11.31195 13.0386038,12.48345 M9.79764231,16.55295 C9.67633462,16.5657 9.55356538,16.5717 9.42933462,16.5717 C9.30437308,16.5717 9.18160385,16.5657 9.06029615,16.55295 C8.79868077,16.40895 8.26668077,15.40395 8.14537308,13.60245 L10.7118346,13.60245 C10.5912577,15.40395 10.0592577,16.40895 9.79764231,16.55295 M5.87633462,13.60245 L7.05433462,13.60245 C7.10914231,14.47095 7.25748846,15.30645 7.49791154,15.99495 C6.67871923,15.4632 6.07875769,14.6082 5.87633462,13.60245 M4.72683462,13.17195 C4.87664231,15.48345 6.60929615,17.3532 8.82206538,17.64645 C8.91852692,17.67345 9.01645,17.69145 9.12021923,17.69145 C9.15602692,17.69145 9.18964231,17.68695 9.22325769,17.68095 C9.29268077,17.68395 9.35991154,17.69145 9.42933462,17.69145 C9.49875769,17.69145 9.56671923,17.68395 9.63541154,17.68095 C9.66902692,17.68695 9.70337308,17.69145 9.73845,17.69145 C9.84221923,17.69145 9.94087308,17.67345 10.0366038,17.64645 C12.2493731,17.3532 13.9827577,15.48345 14.1325654,13.17195 C14.1420654,13.12995 14.1486423,13.0872 14.1486423,13.04295 C14.1486423,13.02045 14.1442577,12.99945 14.1420654,12.97845 C14.1435269,12.93495 14.1486423,12.8922 14.1486423,12.8487 C14.1486423,10.3902 12.3524115,8.35845 10.0373346,8.05095 C9.94087308,8.0247 9.84221923,8.00595 9.73918077,8.00595 C9.70337308,8.00595 9.66902692,8.01045 9.63541154,8.01645 C9.56671923,8.0142 9.49948846,8.00595 9.43006538,8.00595 C9.35991154,8.00595 9.29268077,8.0142 9.22398846,8.01645 C9.19037308,8.01045 9.15602692,8.00595 9.12021923,8.00595 C9.01718077,8.00595 8.91852692,8.02395 8.82206538,8.05095 C6.50698846,8.35845 4.71148846,10.3902 4.71148846,12.8487 C4.71148846,12.89295 4.71660385,12.93495 4.71733462,12.97845 C4.71514231,12.99945 4.71148846,13.02045 4.71148846,13.04295 C4.71075769,13.0872 4.71733462,13.12995 4.72683462,13.17195"/>
    <path fill="#FFF" d="M8.86233077,3.150525 L16.1459077,1.796025 L16.1459077,3.150525 L8.86233077,3.150525 Z M17.6074462,3.150525 L17.6074462,-0.000225 L0.000292307692,3.150525 L0.000292307692,26.714025 L3.82733077,26.714025 L3.82733077,25.214025 L1.46183077,25.214025 L1.46183077,4.650525 L17.3480231,4.650525 L17.3480231,25.214025 L6.83444615,25.214025 L6.83444615,26.714025 L18.8095615,26.714025 L18.8095615,3.150525 L17.6074462,3.150525 Z"/>
    <mask id="icon-immigrer-b" fill="#fff">
      <use xlink:href="#icon-immigrer-a"/>
    </mask>
    <polygon fill="#FFF" points="4.068 21.266 10.352 21.266 10.352 19.766 4.068 19.766" mask="url(#icon-immigrer-b)"/>
    <polygon fill="#FFF" points="11.846 21.266 14.621 21.266 14.621 19.766 11.846 19.766" mask="url(#icon-immigrer-b)"/>
  </g>
</svg>
