<svg xmlns="http://www.w3.org/2000/svg" width="27" height="27" viewBox="0 0 27 27">
  <path fill="#FFF" fill-rule="evenodd" d="M13.1374286,20.7442543 C12.6830571,20.7488829 12.3189429,21.1207114 12.3235714,21.5758543 L12.3235714,21.58434 L12.3235714,25.4245114 C12.3174,25.8788829 12.6799714,26.2530257 13.1343429,26.2591971 C13.5879429,26.2653686 13.9613143,25.9027971 13.9682571,25.4476543 L13.9682571,25.4245114 L13.9682571,21.58434 C13.9775143,21.1299686 13.6172571,20.7535114 13.1628857,20.7442543 L13.1374286,20.7442543 Z M19.6282286,19.1581971 C19.1769429,19.2067971 18.8498571,19.6125686 18.8984571,20.0646257 C18.9185143,20.2536257 19.0033714,20.4310543 19.1399143,20.5645114 L22.1538857,23.5815686 C22.4524286,23.9240829 22.9723714,23.9587971 23.3141143,23.6602543 C23.6558571,23.3617114 23.6913429,22.8417686 23.3928,22.4992543 C23.3696571,22.4722543 23.3449714,22.4475686 23.3187429,22.4244257 L20.3047714,19.4073686 C20.1288857,19.22454 19.8797143,19.13274 19.6282286,19.1581971 L19.6282286,19.1581971 Z M6.47537143,19.1581971 C6.28945714,19.1828829 6.11665714,19.2708257 5.98705714,19.4073686 L2.97308571,22.4244257 C2.63365714,22.7260543 2.60202857,23.2459971 2.90288571,23.5861971 C3.20451429,23.9263971 3.72368571,23.9580257 4.06388571,23.6563971 C4.08934286,23.6332543 4.1148,23.6077971 4.13794286,23.5815686 L7.15191429,20.5645114 C7.47668571,20.2466829 7.48362857,19.7259686 7.16657143,19.4004257 C6.98682857,19.2160543 6.73071429,19.1257971 6.47537143,19.1581971 L6.47537143,19.1581971 Z M21.5043429,12.3094543 C21.0499714,12.3333686 20.7012857,12.7206257 20.7244286,13.1749971 C20.7483429,13.6293686 21.1356,13.9788257 21.5899714,13.9549114 L25.4255143,13.9549114 C25.8798857,13.9618543 26.2524857,13.59774 26.2586571,13.1433686 C26.2648286,12.6889971 25.9014857,12.3156257 25.4478857,12.3094543 L25.4255143,12.3094543 L21.5899714,12.3094543 C21.5606571,12.3079114 21.5321143,12.3079114 21.5043429,12.3094543 L21.5043429,12.3094543 Z M0.779914286,12.3094543 C0.326314286,12.3333686 -0.0223714286,12.7206257 0.00154285714,13.1749971 C0.0246857143,13.6293686 0.411942857,13.9788257 0.866314286,13.9549114 L4.70185714,13.9549114 C5.15622857,13.9618543 5.52882857,13.59774 5.535,13.1433686 C5.54117143,12.6889971 5.1786,12.3156257 4.72422857,12.3094543 L4.70185714,12.3094543 L0.866314286,12.3094543 C0.837771429,12.3079114 0.809228571,12.3079114 0.779914286,12.3094543 L0.779914286,12.3094543 Z M10.3116857,8.74314 L10.3371429,8.74314 C11.0885143,8.75625429 11.7897429,9.16896857 12.5974286,9.90028286 C12.9098571,10.1803114 13.3819714,10.1803114 13.6936286,9.90028286 C14.5020857,9.16896857 15.2033143,8.75625429 15.9546857,8.74314 C15.9654857,8.74391143 15.9693429,8.74314 15.9801429,8.74314 C16.5841714,8.76165429 16.9374857,8.89742571 17.1365143,9.05171143 C17.3378571,9.20908286 17.4481714,9.40039714 17.5044857,9.73751143 C17.6171143,10.4125114 17.3363143,11.61594 16.7677714,12.8324829 C16.1992286,14.0482543 15.3784286,15.2956543 14.6100857,16.2013114 C14.2259143,16.6533686 13.8517714,17.01594 13.5570857,17.2465971 C13.365,17.3970257 13.2060857,17.46414 13.1459143,17.4957686 C13.0857429,17.46414 12.9268286,17.3970257 12.7347429,17.2465971 C12.4400571,17.01594 12.0659143,16.6533686 11.6817429,16.2013114 C10.9134,15.2956543 10.0926,14.0482543 9.52328571,12.8324829 C8.95551429,11.61594 8.67471429,10.4125114 8.78734286,9.73751143 C8.84365714,9.40039714 8.95397143,9.20908286 9.15531429,9.05171143 C9.35434286,8.89742571 9.70765714,8.76165429 10.3116857,8.74314 L10.3116857,8.74314 Z M10.2939429,7.09768286 C9.43071429,7.11774 8.6994,7.32602571 8.14474286,7.75802571 C7.59085714,8.18925429 7.27688571,8.82568286 7.16888571,9.47214 C6.95365714,10.7642829 7.39182857,12.1543971 8.03365714,13.5267686 C8.67548571,14.89914 9.55954286,16.2360257 10.4312571,17.26434 C10.8678857,17.7781114 11.2998857,18.2170543 11.7241714,18.54954 C12.1492286,18.8820257 12.5395714,19.1674543 13.1459143,19.1674543 C13.7522571,19.1674543 14.1426,18.8820257 14.5676571,18.54954 C14.9919429,18.2170543 15.4239429,17.7781114 15.8605714,17.26434 C16.7322857,16.2360257 17.6163429,14.89914 18.2581714,13.5267686 C18.9,12.1543971 19.3381714,10.7642829 19.1229429,9.47214 C19.0149429,8.82568286 18.7009714,8.18925429 18.1463143,7.75802571 C17.5916571,7.32602571 16.8611143,7.11774 15.9971143,7.09768286 C15.9886286,7.09768286 15.9801429,7.09768286 15.9716571,7.09768286 C14.877,7.10308286 13.9566857,7.58522571 13.1459143,8.22088286 C12.3351429,7.58522571 11.4140571,7.10308286 10.3201714,7.09768286 C10.3116857,7.09768286 10.3032,7.09768286 10.2939429,7.09768286 L10.2939429,7.09768286 Z M22.6422,2.42591143 C22.4555143,2.45059714 22.2834857,2.53776857 22.1538857,2.67431143 L19.1399143,5.69214 C18.7997143,5.99299714 18.7688571,6.51371143 19.0697143,6.85391143 C19.3713429,7.19411143 19.8905143,7.22496857 20.2307143,6.92334 C20.2569429,6.90019714 20.2816286,6.87551143 20.3047714,6.84928286 L23.3187429,3.83145429 C23.6435143,3.51439714 23.6496857,2.99368286 23.3334,2.66814 C23.1528857,2.48376857 22.8975429,2.39351143 22.6422,2.42591143 L22.6422,2.42591143 Z M3.4614,2.42591143 C3.01011429,2.47451143 2.68302857,2.88028286 2.73162857,3.33156857 C2.75168571,3.52134 2.83731429,3.69799714 2.97308571,3.83145429 L5.98705714,6.84928286 C6.28637143,7.19179714 6.80554286,7.22651143 7.14728571,6.92719714 C7.48902857,6.62865429 7.52451429,6.10871143 7.22597143,5.76619714 C7.20282857,5.73996857 7.17814286,5.71528286 7.15191429,5.69214 L4.13794286,2.67431143 C3.96205714,2.49148286 3.71288571,2.40045429 3.4614,2.42591143 L3.4614,2.42591143 Z M13.1374286,-0.000231428571 C12.6830571,0.00439714286 12.3189429,0.376997143 12.3235714,0.831368571 L12.3235714,0.839854286 L12.3235714,4.68002571 C12.3174,5.13516857 12.6799714,5.50854 13.1343429,5.51471143 C13.5879429,5.52165429 13.9613143,5.15831143 13.9682571,4.70394 L13.9682571,4.68002571 L13.9682571,0.839854286 C13.9775143,0.385482857 13.6172571,0.00979714286 13.1628857,-0.000231428571 L13.1374286,-0.000231428571 Z"/>
</svg>
